name Walk6.mot
datacolumns 19
datarows 25
range 2.38000000 2.50000000
endheader

                time	   L_ground_force_vx	   L_ground_force_vy	   L_ground_force_vz	   L_ground_force_px	   L_ground_force_py	   L_ground_force_pz	   R_ground_force_vx	   R_ground_force_vy	   R_ground_force_vz	   R_ground_force_px	   R_ground_force_py	   R_ground_force_pz	   L_ground_torque_x	   L_ground_torque_y	   L_ground_torque_z	   R_ground_torque_x	   R_ground_torque_y	   R_ground_torque_z	
          2.38000000	          0.00000000	          0.00000000	         -0.00000000	         -0.00000000	          0.00000000	         -0.00000000	         -1.13020017	          2.39282707	          0.89169295	          0.09715515	          0.00000000	          0.01818023	          0.00000000	          0.00000000	          0.00000000	          0.00000000	          0.02001178	          0.00000000	
          2.38500000	          0.00000000	          0.00000000	         -0.00000000	         -0.00000000	          0.00000000	         -0.00000000	         -2.03569150	         -1.80173138	          0.66843004	          0.06805059	          0.00000000	          0.01247157	          0.00000000	          0.00000000	          0.00000000	          0.00000000	          0.02040985	          0.00000000	
          2.39000000	          0.00000000	          0.00000000	         -0.00000000	         -0.00000000	          0.00000000	         -0.00000000	         -2.45536696	         -4.34912529	          0.47239113	          0.04400443	          0.00000000	          0.00782436	          0.00000000	          0.00000000	          0.00000000	          0.00000000	          0.01905095	          0.00000000	
          2.39500000	          0.00000000	          0.00000000	         -0.00000000	         -0.00000000	          0.00000000	         -0.00000000	         -2.53030687	         -5.63875643	          0.30931474	          0.02510386	          0.00000000	          0.00422539	          0.00000000	          0.00000000	          0.00000000	          0.00000000	          0.01667282	          0.00000000	
          2.40000000	          0.00000000	          0.00000000	         -0.00000000	         -0.00000000	          0.00000000	         -0.00000000	         -2.37824770	         -6.01981445	          0.18027396	          0.01099789	          0.00000000	          0.00158326	          0.00000000	          0.00000000	          0.00000000	          0.00000000	          0.01382915	          0.00000000	
          2.40500000	          0.00000000	          0.00000000	         -0.00000000	         -0.00000000	          0.00000000	         -0.00000000	         -2.09264446	         -5.78808503	          0.08326511	          0.00108220	          0.00000000	         -0.00023631	          0.00000000	          0.00000000	          0.00000000	          0.00000000	          0.01091184	          0.00000000	
          2.41000000	          0.00000000	          0.00000000	         -0.00000000	         -0.00000000	          0.00000000	         -0.00000000	         -1.74398977	         -5.18171391	          0.01446996	         -0.00536213	          0.00000000	         -0.00138447	          0.00000000	          0.00000000	          0.00000000	          0.00000000	          0.00817803	          0.00000000	
          2.41500000	          0.00000000	          0.00000000	         -0.00000000	         -0.00000000	          0.00000000	         -0.00000000	         -1.38247576	         -4.38304894	         -0.03079144	         -0.00907067	          0.00000000	         -0.00201127	          0.00000000	          0.00000000	          0.00000000	          0.00000000	          0.00577811	          0.00000000	
          2.42000000	         -0.00000000	         -0.00000000	         -0.00000000	         -0.00000000	          0.00000000	         -0.00000000	         -1.04130672	         -3.52423439	         -0.05738147	         -0.01073151	          0.00000000	         -0.00225416	          0.00000000	          0.00000000	          0.00000000	          0.00000000	          0.00378211	          0.00000000	
          2.42500000	         -0.00000000	         -0.00000000	         -0.00000000	         -0.00000000	          0.00000000	         -0.00000000	         -0.74016684	         -2.69476893	         -0.06989496	         -0.01094784	          0.00000000	         -0.00223164	          0.00000000	          0.00000000	          0.00000000	          0.00000000	          0.00220299	          0.00000000	
          2.43000000	         -0.00000000	         -0.00000000	         -0.00000000	         -0.00000000	          0.00000000	         -0.00000000	         -0.48851343	         -1.94972516	         -0.07239177	         -0.01022072	          0.00000000	         -0.00204070	          0.00000000	          0.00000000	          0.00000000	          0.00000000	          0.00101610	          0.00000000	
          2.43500000	         -0.00000000	         -0.00000000	         -0.00000000	         -0.00000000	          0.00000000	         -0.00000000	         -0.28849747	         -1.31774333	         -0.06826762	         -0.00894610	          0.00000000	         -0.00175686	          0.00000000	          0.00000000	          0.00000000	          0.00000000	          0.00017462	          0.00000000	
          2.44000000	         -0.00000000	         -0.00000000	         -0.00000000	          0.00000000	          0.00000000	          0.00000000	         -0.13741444	         -0.80824807	         -0.06022373	         -0.00742119	          0.00000000	         -0.00143590	          0.00000000	          0.00000000	          0.00000000	          0.00000000	         -0.00037883	          0.00000000	
          2.44500000	         -0.00000000	         -0.00000000	         -0.00000000	          0.00000000	          0.00000000	          0.00000000	         -0.02966000	         -0.41759598	         -0.05030237	         -0.00585636	          0.00000000	         -0.00111651	          0.00000000	         -0.00000000	          0.00000000	          0.00000000	         -0.00070378	          0.00000000	
          2.45000000	         -0.00000000	         -0.00000000	          0.00000000	          0.00000000	          0.00000000	          0.00000000	          0.04178658	         -0.13405156	         -0.03996169	         -0.00438970	          0.00000000	         -0.00082338	          0.00000000	         -0.00000000	          0.00000000	          0.00000000	         -0.00085650	          0.00000000	
          2.45500000	         -0.00000000	         -0.00000000	          0.00000000	          0.00000000	          0.00000000	          0.00000000	          0.08429907	          0.05838183	         -0.03016992	         -0.00310199	          0.00000000	         -0.00057029	          0.00000000	         -0.00000000	          0.00000000	          0.00000000	         -0.00088670	          0.00000000	
          2.46000000	         -0.00000000	         -0.00000000	          0.00000000	          0.00000000	          0.00000000	          0.00000000	          0.10489447	          0.17716834	         -0.02150458	         -0.00203087	          0.00000000	         -0.00036288	          0.00000000	         -0.00000000	          0.00000000	          0.00000000	         -0.00083594	          0.00000000	
          2.46500000	         -0.00000000	         -0.00000000	          0.00000000	          0.00000000	          0.00000000	          0.00000000	          0.10980602	          0.23933196	         -0.01424691	         -0.00118337	          0.00000000	         -0.00020118	          0.00000000	         -0.00000000	          0.00000000	          0.00000000	         -0.00073728	          0.00000000	
          2.47000000	         -0.00000000	         -0.00000000	          0.00000000	          0.00000000	          0.00000000	          0.00000000	          0.10427137	          0.26026802	         -0.00846595	         -0.00054629	          0.00000000	         -0.00008157	          0.00000000	         -0.00000000	          0.00000000	          0.00000000	         -0.00061569	          0.00000000	
          2.47500000	         -0.00000000	         -0.00000000	          0.00000000	          0.00000000	          0.00000000	          0.00000000	          0.09247551	          0.25310985	         -0.00408917	         -0.00009454	          0.00000000	          0.00000159	          0.00000000	         -0.00000000	          0.00000000	          0.00000000	         -0.00048903	          0.00000000	
          2.48000000	         -0.00000000	         -0.00000000	          0.00000000	          0.00000000	          0.00000000	          0.00000000	          0.07759735	          0.22850153	         -0.00095903	          0.00020263	          0.00000000	          0.00005479	          0.00000000	         -0.00000000	          0.00000000	          0.00000000	         -0.00036913	          0.00000000	
          2.48500000	         -0.00000000	         -0.00000000	          0.00000000	          0.00000000	          0.00000000	          0.00000000	          0.06191927	          0.19464898	          0.00112412	          0.00037718	          0.00000000	          0.00008457	          0.00000000	         -0.00000000	          0.00000000	          0.00000000	         -0.00026305	          0.00000000	
          2.49000000	          0.00000000	          0.00000000	          0.00000000	          0.00000000	          0.00000000	          0.00000000	          0.04696815	          0.15754562	          0.00237110	          0.00045928	          0.00000000	          0.00009698	          0.00000000	         -0.00000000	          0.00000000	          0.00000000	         -0.00017421	          0.00000000	
          2.49500000	          0.00000000	          0.00000000	          0.00000000	          0.00000000	          0.00000000	          0.00000000	          0.03366567	          0.12129200	          0.00298324	          0.00047561	          0.00000000	          0.00009727	          0.00000000	         -0.00000000	          0.00000000	          0.00000000	         -0.00010347	          0.00000000	
          2.50000000	          0.00000000	          0.00000000	          0.00000000	          0.00000000	          0.00000000	          0.00000000	          0.02247251	          0.08845052	          0.00313985	          0.00044847	          0.00000000	          0.00008976	          0.00000000	         -0.00000000	          0.00000000	          0.00000000	         -0.00004992	          0.00000000	
